<svg xmlns="http://www.w3.org/2000/svg" viewBox="252 3239 40 40">
  <defs>
    <style>
    </style>
  </defs>
  <path id="insta" class="cls-1" d="M29.181,19.052v0c.335,0,.67.007,1.005,0a.815.815,0,0,0,.781-.811V16.309a.821.821,0,0,0-.824-.827H28.221a.823.823,0,0,0-.824.829c0,.637,0,1.273,0,1.91a.934.934,0,0,0,.049.284.822.822,0,0,0,.806.549ZM23,19.878a4.121,4.121,0,1,0,4.119,4.212A4.121,4.121,0,0,0,23,19.878Zm-7.969,2.2v.055q0,4.515,0,9.03a.823.823,0,0,0,.808.805H30.158a.822.822,0,0,0,.81-.808q0-4.509,0-9.019v-.063H29.027a6.363,6.363,0,0,1,.251,2.676,6.215,6.215,0,0,1-.877,2.535,6.321,6.321,0,0,1-8.483,2.231,6.178,6.178,0,0,1-2.457-2.475,6.316,6.316,0,0,1-.493-4.967ZM31.137,34.17c.106-.017.212-.033.317-.055a2.2,2.2,0,0,0,1.672-1.7c.017-.091.03-.182.045-.273V15.863c-.014-.089-.027-.179-.043-.267a2.2,2.2,0,0,0-1.853-1.745c-.039,0-.075-.013-.113-.02H14.841c-.1.018-.2.031-.294.053a2.194,2.194,0,0,0-1.7,1.844c-.005.038-.013.076-.019.114V32.16c.019.1.033.207.057.31a2.2,2.2,0,0,0,1.847,1.68c.043.005.087.014.13.02ZM23,44A20,20,0,1,1,43,24,20,20,0,0,1,23,44Z" transform="translate(249 3235)"/>
</svg>
