<svg xmlns="http://www.w3.org/2000/svg" viewBox="322 3239 40 40">
  <defs>
    <style>
    </style>
  </defs>
  <path id="twitter" class="cls-1" d="M26.778,16.189a4.044,4.044,0,0,0-2.724,4.067l.042.692-.7-.085a11.352,11.352,0,0,1-6.649-3.277l-.922-.918-.237.678a4.082,4.082,0,0,0,.866,4.181c.559.593.433.678-.531.325a1.659,1.659,0,0,0-.657-.155,5.075,5.075,0,0,0,.5,1.893A4.513,4.513,0,0,0,17.684,25.4l.685.325-.81.014c-.782,0-.81.014-.726.311a4.226,4.226,0,0,0,2.612,2.317l.866.3-.754.452a7.834,7.834,0,0,1-3.744,1.045,4.1,4.1,0,0,0-1.146.113,10.673,10.673,0,0,0,2.7,1.243,11.787,11.787,0,0,0,9.164-1.045,12.281,12.281,0,0,0,4.652-5.481,14.568,14.568,0,0,0,.95-4.236c0-.65.042-.735.824-1.511a9.208,9.208,0,0,0,.978-1.087c.14-.269.125-.269-.587-.029-1.187.424-1.355.367-.768-.268a4.117,4.117,0,0,0,.95-1.511c0-.042-.209.028-.447.155a7.722,7.722,0,0,1-1.229.48l-.754.241-.685-.467a5.678,5.678,0,0,0-1.187-.621A4.772,4.772,0,0,0,26.778,16.189ZM24,44A20,20,0,1,1,44,24,20,20,0,0,1,24,44Z" transform="translate(318 3235)"/>
</svg>
