<svg xmlns="http://www.w3.org/2000/svg" viewBox="392 3239 40 40">
  <defs>
    <style>
    </style>
  </defs>
  <path id="yt" class="cls-1" d="M29.351,28.893a.462.462,0,0,0-.4.163.89.89,0,0,0-.12.531v.6H29.86v-.6a.877.877,0,0,0-.123-.531A.438.438,0,0,0,29.351,28.893Zm-4.012-.021a.444.444,0,0,1,.363.153.719.719,0,0,1,.123.455v3.056a.648.648,0,0,1-.1.407.373.373,0,0,1-.313.126.65.65,0,0,1-.281-.064,1,1,0,0,1-.277-.209V29.11a.865.865,0,0,1,.24-.181A.554.554,0,0,1,25.339,28.873Zm3.493,2.233V32.22a1.322,1.322,0,0,0,.113.649.433.433,0,0,0,.395.179.475.475,0,0,0,.4-.153,1.278,1.278,0,0,0,.117-.675v-.27h1.2v.3a1.921,1.921,0,0,1-.438,1.373,1.718,1.718,0,0,1-1.305.458,1.589,1.589,0,0,1-1.231-.487,1.906,1.906,0,0,1-.451-1.343V29.6a1.685,1.685,0,0,1,.495-1.255,1.737,1.737,0,0,1,1.274-.485,1.621,1.621,0,0,1,1.229.449,1.793,1.793,0,0,1,.428,1.29v1.509H28.832Zm-2.083,2.558a.958.958,0,0,1-.791.334,1.365,1.365,0,0,1-.608-.128,1.492,1.492,0,0,1-.5-.4v.454H23.676V25.9h1.176v2.583a1.787,1.787,0,0,1,.5-.411,1.129,1.129,0,0,1,.537-.141,1,1,0,0,1,.843.377,1.781,1.781,0,0,1,.292,1.107V32.7A1.489,1.489,0,0,1,26.749,33.663Zm-5.11.259v-.651a2.487,2.487,0,0,1-.673.548,1.4,1.4,0,0,1-.676.188.719.719,0,0,1-.609-.264,1.3,1.3,0,0,1-.2-.793V28h1.163v4.539a.517.517,0,0,0,.071.3.288.288,0,0,0,.239.094.649.649,0,0,0,.325-.125,1.653,1.653,0,0,0,.361-.317V28H22.8v5.919H21.639Zm-4.028-6.856v6.856H16.3V27.067H14.943V25.9h4.024v1.165ZM23,23.319s8.053.012,9.009.967.97,5.676.97,5.7c0,0-.008,4.745-.97,5.7S23,36.667,23,36.667s-8.053-.021-9.011-.975-.961-5.668-.961-5.7,0-4.747.961-5.7S23,23.318,23,23.319Zm6.351-2.482H28.036v-.72a2.742,2.742,0,0,1-.753.606,1.616,1.616,0,0,1-.76.208.817.817,0,0,1-.685-.291,1.4,1.4,0,0,1-.23-.874V14.317h1.308v5A.54.54,0,0,0,27,19.65a.318.318,0,0,0,.266.1.751.751,0,0,0,.365-.137,1.717,1.717,0,0,0,.4-.351V14.317h1.311v6.519Zm-7.115-1.111a.524.524,0,0,0,.4.146.592.592,0,0,0,.423-.149.547.547,0,0,0,.157-.412V15.759a.426.426,0,0,0-.161-.346.641.641,0,0,0-.419-.131.573.573,0,0,0-.391.131.443.443,0,0,0-.15.346v3.551A.584.584,0,0,0,22.231,19.725ZM21.272,14.6a2.124,2.124,0,0,1,1.421-.449,1.907,1.907,0,0,1,1.334.474,1.578,1.578,0,0,1,.518,1.219v3.367a1.714,1.714,0,0,1-.508,1.312,1.98,1.98,0,0,1-1.4.476,1.919,1.919,0,0,1-1.376-.491,1.748,1.748,0,0,1-.515-1.323V15.809A1.494,1.494,0,0,1,21.272,14.6Zm-4.1-2.6H15.689l1.756,5.335v3.5H18.92V17.17L20.636,12h-1.5l-.911,3.532h-.093ZM23,44A20,20,0,1,1,43,24,20,20,0,0,1,23,44Z" transform="translate(389 3235)"/>
</svg>
